<?xml version="1.0" encoding="utf-8"?>
<svg viewBox="-300 -1.375 1200 300" xmlns="http://www.w3.org/2000/svg" xmlns:bx="https://boxy-svg.com">
  <defs>
    <bx:grid x="0" y="-1.375" width="100" height="100"/>
  </defs>
  <path d="M 548.023 -1.875 L 548.023 299.125 L -0.5 299.125 L -0.5 -1.875 Z M 0.5 298.125 L 547.023 298.125 L 547.023 -0.875 L 0.5 -0.875 Z" style="fill: none;"/>
  <g transform="matrix(1, 0, 0, 1, 16.516174, -3.002941)">
    <g transform="matrix(1, 0, 0, 1, -148.608429, 10.17866)">
      <path d="M 189.236 12.017 C 345.8 12.017 473.357 136.206 478.773 291.449 L -100.301 291.449 C -94.885 136.206 32.672 12.017 189.236 12.017 Z" style="fill: rgb(221, 58, 144); stroke-miterlimit: 1;"/>
      <path d="M 689.768 68.038 C 824.196 68.038 936.169 164.177 960.684 291.449 L 418.852 291.449 C 443.367 164.177 555.34 68.038 689.768 68.038 Z" style="fill: rgb(50, 56, 59); stroke-miterlimit: 1; paint-order: stroke markers;"/>
      <path d="M 458.08 193.924 C 470.247 224.236 477.438 257.081 478.643 291.449 L 418.734 291.449 C 425.556 256.068 439.137 223.094 458.08 193.924 Z" style="stroke-miterlimit: 1; fill: rgb(6, 7, 8);"/>
    </g>
  </g>
</svg>